<svg xmlns="http://www.w3.org/2000/svg" xmlns:xlink="http://www.w3.org/1999/xlink" width="1400" zoomAndPan="magnify" viewBox="0 0 1050 299.999988" height="400" preserveAspectRatio="xMidYMid meet" version="1.0"><defs><g/><clipPath id="de94926ee9"><path d="M 967.84375 175.210938 L 1045.59375 175.210938 L 1045.59375 252.960938 L 967.84375 252.960938 Z M 967.84375 175.210938 " clip-rule="nonzero"/></clipPath></defs><g fill="#23232c" fill-opacity="1"><g transform="translate(4.720397, 236.513401)"><g><path d="M 93.1875 5.203125 C 78.4375 5.203125 64.941406 1.691406 52.703125 -5.328125 C 40.472656 -12.359375 30.753906 -22.378906 23.546875 -35.390625 C 16.347656 -48.410156 12.75 -63.597656 12.75 -80.953125 C 12.75 -98.484375 16.21875 -113.925781 23.15625 -127.28125 C 30.101562 -140.644531 40 -151.015625 52.84375 -158.390625 C 65.6875 -165.765625 80.695312 -169.453125 97.875 -169.453125 C 112.789062 -169.453125 126.0625 -166.457031 137.6875 -160.46875 C 149.320312 -154.488281 155.140625 -145.25 155.140625 -132.75 C 155.304688 -124.9375 152.960938 -118.296875 148.109375 -112.828125 C 143.253906 -107.367188 136.75 -104.640625 128.59375 -104.640625 C 125.46875 -104.640625 122.816406 -105.203125 120.640625 -106.328125 C 118.472656 -107.453125 116.867188 -108.796875 115.828125 -110.359375 C 114.785156 -111.921875 114.351562 -113.140625 114.53125 -114.015625 C 114.53125 -114.359375 115.742188 -115.3125 118.171875 -116.875 C 120.597656 -118.4375 122.765625 -120.601562 124.671875 -123.375 C 126.585938 -126.15625 127.546875 -129.539062 127.546875 -133.53125 C 127.546875 -141.34375 124.898438 -147.546875 119.609375 -152.140625 C 114.316406 -156.742188 106.984375 -159.046875 97.609375 -159.046875 C 87.023438 -159.046875 77.609375 -156.050781 69.359375 -150.0625 C 61.117188 -144.070312 54.695312 -135.304688 50.09375 -123.765625 C 45.5 -112.234375 43.203125 -98.484375 43.203125 -82.515625 C 43.203125 -68.628906 45.675781 -56.003906 50.625 -44.640625 C 55.570312 -33.273438 62.554688 -24.25 71.578125 -17.5625 C 80.597656 -10.882812 90.925781 -7.546875 102.5625 -7.546875 C 111.925781 -7.546875 119.945312 -9.5 126.625 -13.40625 C 133.3125 -17.3125 139.34375 -23.601562 144.71875 -32.28125 C 145.59375 -33.84375 146.8125 -34.625 148.375 -34.625 C 149.757812 -34.625 151.316406 -34.101562 153.046875 -33.0625 C 155.828125 -31.144531 157.21875 -29.234375 157.21875 -27.328125 C 157.21875 -26.285156 156.867188 -25.421875 156.171875 -24.734375 C 149.578125 -16.398438 143.375 -10.109375 137.5625 -5.859375 C 131.75 -1.609375 125.457031 1.296875 118.6875 2.859375 C 111.925781 4.421875 103.425781 5.203125 93.1875 5.203125 Z M 93.1875 5.203125 "/></g></g></g><g fill="#23232c" fill-opacity="1"><g transform="translate(171.048607, 236.513401)"><g><path d="M 10.15625 0.78125 C 8.9375 0.78125 7.9375 0.257812 7.15625 -0.78125 C 6.375 -1.820312 5.984375 -3.035156 5.984375 -4.421875 C 6.160156 -6.679688 6.640625 -8.023438 7.421875 -8.453125 C 8.203125 -8.890625 9.71875 -9.109375 11.96875 -9.109375 C 16.476562 -9.109375 19.6875 -9.890625 21.59375 -11.453125 C 23.507812 -13.015625 24.640625 -14.835938 24.984375 -16.921875 C 25.335938 -19.003906 25.515625 -22.300781 25.515625 -26.8125 L 25.515625 -153.828125 C 25.515625 -158.347656 25.382812 -161.644531 25.125 -163.71875 C 24.863281 -165.800781 23.773438 -167.625 21.859375 -169.1875 C 19.953125 -170.75 16.742188 -171.53125 12.234375 -171.53125 C 10.148438 -171.53125 8.585938 -171.832031 7.546875 -172.4375 C 6.503906 -173.050781 5.984375 -174.484375 5.984375 -176.734375 C 5.984375 -177.773438 6.328125 -178.773438 7.015625 -179.734375 C 7.710938 -180.691406 8.757812 -181.253906 10.15625 -181.421875 C 21.082031 -182.984375 30.453125 -185.238281 38.265625 -188.1875 C 40.691406 -189.0625 42.6875 -189.582031 44.25 -189.75 L 45.03125 -189.75 C 47.8125 -189.75 49.203125 -188.101562 49.203125 -184.8125 L 49.203125 -26.8125 C 49.203125 -22.300781 49.375 -19.003906 49.71875 -16.921875 C 50.0625 -14.835938 51.1875 -13.015625 53.09375 -11.453125 C 55.007812 -9.890625 58.222656 -9.109375 62.734375 -9.109375 L 64.296875 -9.109375 C 65.679688 -9.109375 66.71875 -8.847656 67.40625 -8.328125 C 68.101562 -7.804688 68.539062 -6.503906 68.71875 -4.421875 C 68.71875 -3.035156 68.367188 -1.820312 67.671875 -0.78125 C 66.984375 0.257812 65.941406 0.78125 64.546875 0.78125 C 54.484375 0.257812 45.375 0 37.21875 0 C 29.414062 0 20.394531 0.257812 10.15625 0.78125 Z M 10.15625 0.78125 "/></g></g></g><g fill="#23232c" fill-opacity="1"><g transform="translate(245.492837, 236.513401)"><g><path d="M 12.75 0.78125 C 11.539062 0.78125 10.546875 0.257812 9.765625 -0.78125 C 8.984375 -1.820312 8.59375 -3.035156 8.59375 -4.421875 C 8.757812 -6.679688 9.273438 -8.023438 10.140625 -8.453125 C 11.015625 -8.890625 12.582031 -9.109375 14.84375 -9.109375 C 19.351562 -9.109375 22.5625 -9.890625 24.46875 -11.453125 C 26.375 -13.015625 27.457031 -14.835938 27.71875 -16.921875 C 27.976562 -19.003906 28.109375 -22.300781 28.109375 -26.8125 L 28.109375 -86.421875 C 28.109375 -90.929688 27.976562 -94.226562 27.71875 -96.3125 C 27.457031 -98.394531 26.375 -100.21875 24.46875 -101.78125 C 22.5625 -103.34375 19.351562 -104.125 14.84375 -104.125 C 12.757812 -104.125 11.195312 -104.425781 10.15625 -105.03125 C 9.113281 -105.632812 8.59375 -107.066406 8.59375 -109.328125 C 8.59375 -110.367188 8.9375 -111.363281 9.625 -112.3125 C 10.320312 -113.269531 11.363281 -113.835938 12.75 -114.015625 C 23.6875 -115.578125 33.054688 -117.832031 40.859375 -120.78125 C 43.296875 -121.644531 45.296875 -122.164062 46.859375 -122.34375 L 47.640625 -122.34375 C 50.410156 -122.34375 51.796875 -120.691406 51.796875 -117.390625 L 51.796875 -26.8125 C 51.796875 -22.300781 51.96875 -19.003906 52.3125 -16.921875 C 52.664062 -14.835938 53.796875 -13.015625 55.703125 -11.453125 C 57.609375 -9.890625 60.816406 -9.109375 65.328125 -9.109375 L 66.890625 -9.109375 C 68.285156 -9.109375 69.328125 -8.847656 70.015625 -8.328125 C 70.710938 -7.804688 71.148438 -6.503906 71.328125 -4.421875 C 71.328125 -3.035156 70.976562 -1.820312 70.28125 -0.78125 C 69.582031 0.257812 68.539062 0.78125 67.15625 0.78125 C 57.09375 0.257812 47.984375 0 39.828125 0 C 32.015625 0 22.988281 0.257812 12.75 0.78125 Z M 38.53125 -151.234375 C 33.664062 -151.234375 29.582031 -152.75 26.28125 -155.78125 C 22.988281 -158.820312 21.34375 -162.597656 21.34375 -167.109375 C 21.34375 -171.097656 23.335938 -174.65625 27.328125 -177.78125 C 31.316406 -180.90625 35.828125 -182.46875 40.859375 -182.46875 C 45.203125 -182.46875 48.757812 -180.945312 51.53125 -177.90625 C 54.3125 -174.875 55.703125 -171.015625 55.703125 -166.328125 C 55.703125 -162.160156 54.050781 -158.601562 50.75 -155.65625 C 47.457031 -152.707031 43.382812 -151.234375 38.53125 -151.234375 Z M 38.53125 -151.234375 "/></g></g></g><g fill="#23232c" fill-opacity="1"><g transform="translate(322.540014, 236.513401)"><g><path d="M 12.75 0.78125 C 11.539062 0.78125 10.546875 0.257812 9.765625 -0.78125 C 8.984375 -1.820312 8.59375 -3.035156 8.59375 -4.421875 C 8.757812 -6.679688 9.273438 -8.023438 10.140625 -8.453125 C 11.015625 -8.890625 12.582031 -9.109375 14.84375 -9.109375 C 19.351562 -9.109375 22.5625 -9.890625 24.46875 -11.453125 C 26.375 -13.015625 27.457031 -14.835938 27.71875 -16.921875 C 27.976562 -19.003906 28.109375 -22.300781 28.109375 -26.8125 L 28.109375 -86.421875 C 28.109375 -90.929688 27.976562 -94.226562 27.71875 -96.3125 C 27.457031 -98.394531 26.375 -100.21875 24.46875 -101.78125 C 22.5625 -103.34375 19.351562 -104.125 14.84375 -104.125 C 12.757812 -104.125 11.195312 -104.425781 10.15625 -105.03125 C 9.113281 -105.632812 8.59375 -107.066406 8.59375 -109.328125 C 8.59375 -110.367188 8.9375 -111.363281 9.625 -112.3125 C 10.320312 -113.269531 11.363281 -113.835938 12.75 -114.015625 C 24.03125 -115.742188 33.316406 -118 40.609375 -120.78125 C 43.554688 -121.644531 45.550781 -122.164062 46.59375 -122.34375 L 47.375 -122.34375 C 50.144531 -122.34375 51.53125 -120.691406 51.53125 -117.390625 L 51.53125 -101 L 52.3125 -101 C 57.351562 -105.675781 61.429688 -109.273438 64.546875 -111.796875 C 67.671875 -114.316406 71.707031 -116.484375 76.65625 -118.296875 C 81.601562 -120.117188 87.460938 -121.03125 94.234375 -121.03125 C 106.023438 -121.03125 115.390625 -117.472656 122.328125 -110.359375 C 129.273438 -103.242188 132.75 -93.875 132.75 -82.25 L 132.75 -26.8125 C 132.75 -22.300781 132.921875 -19.003906 133.265625 -16.921875 C 133.617188 -14.835938 134.75 -13.015625 136.65625 -11.453125 C 138.5625 -9.890625 141.769531 -9.109375 146.28125 -9.109375 L 147.84375 -9.109375 C 149.238281 -9.109375 150.28125 -8.847656 150.96875 -8.328125 C 151.664062 -7.804688 152.101562 -6.503906 152.28125 -4.421875 C 152.28125 -3.035156 151.890625 -1.820312 151.109375 -0.78125 C 150.328125 0.257812 149.328125 0.78125 148.109375 0.78125 C 138.046875 0.257812 128.9375 0 120.78125 0 C 112.96875 0 103.941406 0.257812 93.703125 0.78125 C 92.492188 0.78125 91.5 0.257812 90.71875 -0.78125 C 89.9375 -1.820312 89.546875 -3.035156 89.546875 -4.421875 C 89.710938 -6.679688 90.1875 -8.023438 90.96875 -8.453125 C 91.75 -8.890625 93.269531 -9.109375 95.53125 -9.109375 C 100.039062 -9.109375 103.25 -9.890625 105.15625 -11.453125 C 107.0625 -13.015625 108.1875 -14.835938 108.53125 -16.921875 C 108.882812 -19.003906 109.0625 -22.300781 109.0625 -26.8125 L 109.0625 -82 C 109.0625 -89.976562 106.546875 -96.09375 101.515625 -100.34375 C 96.484375 -104.59375 90.671875 -106.71875 84.078125 -106.71875 C 76.097656 -106.71875 69.242188 -104.765625 63.515625 -100.859375 C 57.785156 -96.960938 53.878906 -92.929688 51.796875 -88.765625 L 51.796875 -26.8125 C 51.796875 -22.300781 51.96875 -19.003906 52.3125 -16.921875 C 52.664062 -14.835938 53.796875 -13.015625 55.703125 -11.453125 C 57.609375 -9.890625 60.816406 -9.109375 65.328125 -9.109375 L 66.890625 -9.109375 C 68.285156 -9.109375 69.328125 -8.847656 70.015625 -8.328125 C 70.710938 -7.804688 71.148438 -6.503906 71.328125 -4.421875 C 71.328125 -3.035156 70.976562 -1.820312 70.28125 -0.78125 C 69.582031 0.257812 68.539062 0.78125 67.15625 0.78125 C 57.09375 0.257812 47.984375 0 39.828125 0 C 32.015625 0 22.988281 0.257812 12.75 0.78125 Z M 12.75 0.78125 "/></g></g></g><g fill="#23232c" fill-opacity="1"><g transform="translate(478.456426, 236.513401)"><g><path d="M 71.578125 3.125 C 58.566406 3.125 47.503906 0.347656 38.390625 -5.203125 C 29.285156 -10.753906 22.390625 -18.300781 17.703125 -27.84375 C 13.015625 -37.394531 10.671875 -47.984375 10.671875 -59.609375 C 10.671875 -69.847656 13.054688 -79.695312 17.828125 -89.15625 C 22.597656 -98.613281 29.40625 -106.289062 38.25 -112.1875 C 47.101562 -118.082031 57.257812 -121.03125 68.71875 -121.03125 C 84.164062 -121.03125 96.050781 -117.082031 104.375 -109.1875 C 112.707031 -101.289062 117.484375 -90.664062 118.703125 -77.3125 C 118.703125 -71.582031 117.140625 -67.675781 114.015625 -65.59375 C 110.890625 -63.507812 106.375 -62.46875 100.46875 -62.46875 L 37.21875 -62.46875 C 37.21875 -46.332031 40.554688 -33.535156 47.234375 -24.078125 C 53.921875 -14.617188 64.289062 -9.890625 78.34375 -9.890625 C 85.8125 -9.890625 92.144531 -11.492188 97.34375 -14.703125 C 102.550781 -17.910156 107.5 -23.332031 112.1875 -30.96875 C 113.050781 -31.84375 113.921875 -32.28125 114.796875 -32.28125 C 116.003906 -32.28125 117.046875 -31.929688 117.921875 -31.234375 C 119.648438 -30.191406 120.515625 -28.628906 120.515625 -26.546875 C 120.515625 -25.503906 120.34375 -24.722656 120 -24.203125 C 114.613281 -15.523438 107.800781 -8.800781 99.5625 -4.03125 C 91.320312 0.738281 81.992188 3.125 71.578125 3.125 Z M 79.65625 -72.359375 C 88.5 -72.359375 93.179688 -76.003906 93.703125 -83.296875 C 93.703125 -91.273438 91.53125 -98.039062 87.1875 -103.59375 C 82.851562 -109.144531 76.695312 -111.921875 68.71875 -111.921875 C 59.863281 -111.921875 52.570312 -108.40625 46.84375 -101.375 C 41.125 -94.351562 37.914062 -84.679688 37.21875 -72.359375 Z M 79.65625 -72.359375 "/></g></g></g><g fill="#23232c" fill-opacity="1"><g transform="translate(609.124272, 236.513401)"><g><path d="M 13.015625 0.78125 C 11.796875 0.78125 10.796875 0.257812 10.015625 -0.78125 C 9.234375 -1.820312 8.84375 -3.035156 8.84375 -4.421875 C 9.019531 -6.679688 9.5 -8.023438 10.28125 -8.453125 C 11.0625 -8.890625 12.582031 -9.109375 14.84375 -9.109375 C 19.351562 -9.109375 22.5625 -9.890625 24.46875 -11.453125 C 26.375 -13.015625 27.5 -14.835938 27.84375 -16.921875 C 28.195312 -19.003906 28.375 -22.300781 28.375 -26.8125 L 28.375 -86.421875 C 28.375 -90.929688 28.242188 -94.226562 27.984375 -96.3125 C 27.722656 -98.394531 26.632812 -100.21875 24.71875 -101.78125 C 22.8125 -103.34375 19.601562 -104.125 15.09375 -104.125 C 13.007812 -104.125 11.445312 -104.425781 10.40625 -105.03125 C 9.363281 -105.632812 8.84375 -107.066406 8.84375 -109.328125 C 8.84375 -110.367188 9.191406 -111.363281 9.890625 -112.3125 C 10.585938 -113.269531 11.628906 -113.835938 13.015625 -114.015625 C 24.296875 -115.742188 33.578125 -118 40.859375 -120.78125 C 43.816406 -121.644531 45.816406 -122.164062 46.859375 -122.34375 L 47.640625 -122.34375 C 50.410156 -122.34375 51.796875 -120.691406 51.796875 -117.390625 L 51.796875 -101 L 52.578125 -101 C 53.617188 -102.039062 56.222656 -104.597656 60.390625 -108.671875 C 64.554688 -112.753906 69.285156 -115.832031 74.578125 -117.90625 C 79.867188 -119.988281 85.898438 -121.03125 92.671875 -121.03125 C 100.992188 -121.03125 108.191406 -119.25 114.265625 -115.6875 C 120.335938 -112.132812 124.851562 -107.238281 127.8125 -101 L 128.328125 -101 C 135.097656 -107.414062 141.5625 -112.359375 147.71875 -115.828125 C 153.875 -119.296875 161.8125 -121.03125 171.53125 -121.03125 C 183.332031 -121.03125 192.703125 -117.472656 199.640625 -110.359375 C 206.585938 -103.242188 210.0625 -93.875 210.0625 -82.25 L 210.0625 -26.8125 C 210.0625 -22.300781 210.234375 -19.003906 210.578125 -16.921875 C 210.921875 -14.835938 212.046875 -13.015625 213.953125 -11.453125 C 215.867188 -9.890625 219.082031 -9.109375 223.59375 -9.109375 L 225.15625 -9.109375 C 226.539062 -9.109375 227.582031 -8.847656 228.28125 -8.328125 C 228.976562 -7.804688 229.410156 -6.503906 229.578125 -4.421875 C 229.578125 -3.035156 229.1875 -1.820312 228.40625 -0.78125 C 227.625 0.257812 226.628906 0.78125 225.421875 0.78125 C 215.347656 0.257812 206.234375 0 198.078125 0 C 190.273438 0 181.253906 0.257812 171.015625 0.78125 C 169.628906 0.78125 168.585938 0.257812 167.890625 -0.78125 C 167.191406 -1.820312 166.84375 -3.035156 166.84375 -4.421875 C 167.019531 -6.679688 167.5 -8.023438 168.28125 -8.453125 C 169.0625 -8.890625 170.582031 -9.109375 172.84375 -9.109375 C 177.351562 -9.109375 180.5625 -9.890625 182.46875 -11.453125 C 184.375 -13.015625 185.5 -14.835938 185.84375 -16.921875 C 186.195312 -19.003906 186.375 -22.300781 186.375 -26.8125 L 186.375 -82 C 186.375 -89.976562 183.859375 -96.09375 178.828125 -100.34375 C 173.796875 -104.59375 167.984375 -106.71875 161.390625 -106.71875 C 153.398438 -106.71875 146.890625 -104.804688 141.859375 -100.984375 C 136.828125 -97.171875 133.269531 -93.097656 131.1875 -88.765625 L 131.1875 -26.8125 C 131.1875 -25.769531 131.140625 -23.425781 131.046875 -19.78125 C 130.960938 -16.132812 131.921875 -13.441406 133.921875 -11.703125 C 135.921875 -9.972656 139.175781 -9.109375 143.6875 -9.109375 L 145.25 -9.109375 C 146.8125 -9.109375 147.894531 -8.847656 148.5 -8.328125 C 149.101562 -7.804688 149.492188 -6.503906 149.671875 -4.421875 C 149.671875 -3.035156 149.320312 -1.820312 148.625 -0.78125 C 147.9375 0.257812 146.894531 0.78125 145.5 0.78125 C 135.257812 0.257812 126.410156 0 118.953125 0 C 111.835938 0 103.160156 0.257812 92.921875 0.78125 C 91.535156 0.78125 90.492188 0.257812 89.796875 -0.78125 C 89.109375 -1.820312 88.765625 -3.035156 88.765625 -4.421875 C 88.929688 -6.679688 89.40625 -8.023438 90.1875 -8.453125 C 90.96875 -8.890625 92.488281 -9.109375 94.75 -9.109375 C 100.476562 -9.109375 104.035156 -10.28125 105.421875 -12.625 C 106.804688 -14.96875 107.457031 -17.65625 107.375 -20.6875 C 107.289062 -23.726562 107.25 -25.769531 107.25 -26.8125 L 107.25 -82 C 107.25 -89.976562 104.773438 -96.09375 99.828125 -100.34375 C 94.878906 -104.59375 89.109375 -106.71875 82.515625 -106.71875 C 74.535156 -106.71875 68.023438 -104.804688 62.984375 -100.984375 C 57.953125 -97.171875 54.3125 -93.097656 52.0625 -88.765625 L 52.0625 -26.8125 C 52.0625 -22.300781 52.234375 -19.003906 52.578125 -16.921875 C 52.921875 -14.835938 54.046875 -13.015625 55.953125 -11.453125 C 57.867188 -9.890625 61.082031 -9.109375 65.59375 -9.109375 L 67.15625 -9.109375 C 68.539062 -9.109375 69.582031 -8.847656 70.28125 -8.328125 C 70.976562 -7.804688 71.410156 -6.503906 71.578125 -4.421875 C 71.578125 -3.035156 71.226562 -1.820312 70.53125 -0.78125 C 69.84375 0.257812 68.804688 0.78125 67.421875 0.78125 C 57.347656 0.257812 48.234375 0 40.078125 0 C 32.273438 0 23.253906 0.257812 13.015625 0.78125 Z M 13.015625 0.78125 "/></g></g></g><g fill="#23232c" fill-opacity="1"><g transform="translate(842.348145, 236.513401)"><g><path d="M 43.734375 3.125 C 33.316406 3.125 24.894531 0.175781 18.46875 -5.71875 C 12.050781 -11.625 8.84375 -19.003906 8.84375 -27.859375 C 8.84375 -38.785156 12.488281 -46.984375 19.78125 -52.453125 C 27.070312 -57.921875 35.75 -61.476562 45.8125 -63.125 C 55.875 -64.769531 68.890625 -66.023438 84.859375 -66.890625 L 84.859375 -87.453125 C 84.859375 -95.960938 82.734375 -102.425781 78.484375 -106.84375 C 74.234375 -111.269531 67.421875 -113.484375 58.046875 -113.484375 C 52.671875 -113.484375 47.984375 -111.832031 43.984375 -108.53125 C 39.992188 -105.238281 38 -100.816406 38 -95.265625 C 38 -92.492188 38.648438 -90.195312 39.953125 -88.375 C 41.253906 -86.550781 42.640625 -85.03125 44.109375 -83.8125 C 45.585938 -82.601562 46.328125 -81.910156 46.328125 -81.734375 C 46.328125 -80.691406 45.242188 -79.34375 43.078125 -77.6875 C 40.910156 -76.039062 38.265625 -75.21875 35.140625 -75.21875 C 29.929688 -75.21875 25.804688 -77.125 22.765625 -80.9375 C 19.734375 -84.757812 18.21875 -89.273438 18.21875 -94.484375 C 18.21875 -103.503906 22.25 -110.179688 30.3125 -114.515625 C 38.382812 -118.859375 48.148438 -121.03125 59.609375 -121.03125 C 73.835938 -121.03125 85.421875 -118.34375 94.359375 -112.96875 C 103.296875 -107.59375 107.765625 -97.613281 107.765625 -83.03125 L 107.765625 -22.390625 C 107.929688 -18.742188 109.054688 -15.269531 111.140625 -11.96875 C 113.222656 -8.675781 116.609375 -7.03125 121.296875 -7.03125 C 122.679688 -7.03125 123.675781 -6.769531 124.28125 -6.25 C 124.894531 -5.726562 125.203125 -4.597656 125.203125 -2.859375 C 125.203125 -0.773438 123.597656 0.738281 120.390625 1.6875 C 117.179688 2.644531 114.015625 3.125 110.890625 3.125 C 104.296875 3.125 98.476562 1.21875 93.4375 -2.59375 C 88.40625 -6.414062 85.546875 -11.535156 84.859375 -17.953125 C 81.210938 -11.191406 75.613281 -5.988281 68.0625 -2.34375 C 60.519531 1.300781 52.410156 3.125 43.734375 3.125 Z M 52.0625 -10.9375 C 57.957031 -10.9375 63.421875 -12.410156 68.453125 -15.359375 C 73.484375 -18.304688 77.472656 -22.335938 80.421875 -27.453125 C 83.378906 -32.578125 84.859375 -38.265625 84.859375 -44.515625 L 84.859375 -59.34375 C 66.640625 -57.957031 53.796875 -55.007812 46.328125 -50.5 C 38.867188 -45.988281 35.140625 -38.695312 35.140625 -28.625 C 35.140625 -16.832031 40.78125 -10.9375 52.0625 -10.9375 Z M 52.0625 -10.9375 "/></g></g></g><g clip-path="url(#de94926ee9)"><path fill="#5271ff" d="M 1045.320312 213.949219 C 1016.570312 219.46875 1012.097656 223.9375 1006.582031 252.6875 C 1001.066406 223.9375 996.59375 219.46875 967.84375 213.949219 C 996.59375 208.433594 1001.066406 203.960938 1006.582031 175.210938 C 1012.097656 203.960938 1016.570312 208.433594 1045.320312 213.949219 Z M 1045.320312 213.949219 " fill-opacity="1" fill-rule="nonzero"/></g></svg>